<?xml version="1.0" standalone="no"?>
<!DOCTYPE svg PUBLIC "-//W3C//DTD SVG 1.1//EN" "http://www.w3.org/Graphics/SVG/1.1/DTD/svg11.dtd" >
<!--
2013-9-30: Created.
-->
<svg>
<metadata>
Created by iconfont
</metadata>
<defs>

<font id="iconfont" horiz-adv-x="1024" >
  <font-face
    font-family="iconfont"
    font-weight="500"
    font-stretch="normal"
    units-per-em="1024"
    ascent="896"
    descent="-128"
  />
    <missing-glyph />
    
    <glyph glyph-name="icon011" unicode="&#58882;" d="M917.125901-106.746818c-0.12996 1.337461-0.281409 2.669806-0.422625 4.004197-0.047072 2.76702-0.36839 5.466502-0.940418 8.071839-18.47477 145.517211-113.515357 267.106454-243.444545 323.057767 75.077929 51.471278 124.342959 137.897673 124.342959 235.854683 0 157.788699-127.812991 285.701974-285.482987 285.701974s-285.475823-127.913275-285.475823-285.701974c0-97.993848 49.299823-184.448896 124.423801-235.911988-128.46279-55.376215-222.788086-174.924985-242.679112-318.313719-1.475608-4.217045-2.287089-8.747221-2.287089-13.469779l0.310062-3.186576c-0.004093-0.036839-0.007163-0.071631-0.011256-0.106424l0.021489 0 0.047072-0.48914c0-22.502503 18.225083-40.742936 40.709167-40.742936 22.478967 0 40.698934 18.240433 40.698934 40.742936l-0.047072 0.48914 0.733711 0c18.968004 155.569148 147.357116 277.321096 305.797661 285.853423 5.875824-0.361227 11.792581-0.565888 17.759479-0.565888 5.980201 0 11.910261 0.205685 17.798365 0.567935 158.467151-8.515954 286.85831-130.273019 305.82529-285.85547l0.830925 0 0.047072-0.48914c0-22.502503 18.235316-40.742936 40.715307-40.742936 22.473851 0 40.698934 18.240433 40.698934 40.742936l-0.048095 0.48914L917.125901-106.746818 917.125901-106.746818zM511.1087 260.090035c-112.61894 0-203.915249 91.366917-203.915249 204.072839S398.48976 668.232642 511.1087 668.232642c112.62508 0 203.910133-91.363847 203.910133-204.069769C715.01781 351.455929 623.732757 260.090035 511.1087 260.090035z"  horiz-adv-x="1024" />

    
    <glyph glyph-name="xinxi" unicode="&#58922;" d="M929.369043 644.509217 927.654957 335.394783c0 0-5.164522-167.490783-184.119652-167.490783L492.321391 167.904l-111.86087-115.689739 184.119652-1.714087L817.530435-212l8.614957 269.401043c0 0 197.87687-13.824 197.87687 162.304s0 260.763826 0 260.763826S1032.614957 585.785043 929.369043 644.509217zM710.856348 211.067826c91.225043 0 165.175652 74.217739 165.175652 165.776696L876.032 646.223304C876.032 737.782261 802.05913 812 710.856348 812L165.376 812c-91.225043 0-165.175652-74.217739-165.175652-165.776696l0-269.378783c0-91.558957 73.950609-165.776696 165.175652-165.776696l13.890783 0L180.869565-34.135652l272.962783 245.203478L710.856348 211.067826z"  horiz-adv-x="1025" />

    
    <glyph glyph-name="bingzhuangtu" unicode="&#58980;" d="M546.133333 418.133333 546.133333 896C810.052267 896 1024 682.052267 1024 418.133333L546.133333 418.133333ZM887.466667 281.6 885.742933 281.6C868.2496 52.5312 677.2736-128 443.733333-128 198.673067-128 0 70.673067 0 315.733333 0 560.810667 198.673067 759.466667 443.733333 759.466667 455.253333 759.466667 466.568533 758.613333 477.866667 757.742933L477.866667 691.2 477.866667 689.476267 477.866667 349.866667 887.466667 349.866667 887.466667 281.6ZM477.866667 281.6 409.6 281.6 409.6 349.866667 409.6 689.476267C218.248533 672.2048 68.266667 511.573333 68.266667 315.733333 68.266667 108.373333 236.373333-59.733333 443.733333-59.733333 639.573333-59.733333 800.2048 90.248533 817.476267 281.6L477.866667 281.6Z"  horiz-adv-x="1024" />

    
    <glyph glyph-name="caozuoxitong" unicode="&#59020;" d="M1017.6 300.8z m-422.4 32l-108.8-377.6c57.6-38.4 121.6-76.8 211.2-76.8 57.6 0 128 12.8 211.2 51.2l108.8 371.2c-83.2-25.6-147.2-38.4-204.8-38.4-96 0-153.6 32-217.6 70.4z m38.4-96c51.2-25.6 108.8-44.8 179.2-44.8 32 0 70.4 6.4 115.2 12.8l-64-230.4c-64-25.6-115.2-32-160-32-51.2 0-96 12.8-140.8 38.4l70.4 256zM326.4 448c89.6 0 153.6-32 211.2-70.4l-108.8-384c-57.6 38.4-121.6 76.8-211.2 76.8-57.6 0-128-12.8-211.2-51.2l108.8 377.6C198.4 428.8 268.8 448 326.4 448z m0-64c-44.8 0-102.4-12.8-166.4-32l-64-230.4c38.4 12.8 76.8 12.8 115.2 12.8 70.4 0 128-19.2 172.8-44.8l76.8 256C422.4 364.8 377.6 384 326.4 384z m128 512c89.6 0 153.6-38.4 211.2-76.8L556.8 441.6c-57.6 44.8-134.4 76.8-211.2 76.8-76.8 0-147.2-19.2-217.6-51.2l108.8 384C326.4 883.2 396.8 896 454.4 896z m0-64c-44.8 0-102.4-12.8-160-32L224 569.6c38.4 6.4 76.8 12.8 121.6 19.2 57.6 0 115.2-19.2 172.8-44.8l70.4 249.6C550.4 819.2 505.6 832 454.4 832zM1152 755.2z m-428.8 25.6c57.6-38.4 121.6-76.8 211.2-76.8 57.6 0 128 12.8 211.2 51.2l-108.8-377.6c-83.2-38.4-153.6-51.2-211.2-51.2-89.6 0-160 38.4-217.6 76.8l115.2 377.6z m38.4-96l-76.8-256c44.8-25.6 89.6-38.4 140.8-38.4 44.8 0 102.4 12.8 160 32l70.4 236.8c-44.8-12.8-83.2-12.8-121.6-12.8-64-6.4-121.6 12.8-172.8 38.4z"  horiz-adv-x="1152" />

    
    <glyph glyph-name="banben" unicode="&#59785;" d="M419.8 208.8c1.1-2.1 2.5-4.1 4.1-5.9 0.1-0.1 0.1-0.2 0.2-0.2 0.2-0.3 0.5-0.5 0.7-0.8l0.5-0.5 0.5-0.5c0.3-0.2 0.5-0.5 0.8-0.7 0.1-0.1 0.2-0.1 0.2-0.2 3.2-2.9 7-5 11-6.3h0.1c0.4-0.1 0.8-0.3 1.3-0.4 0.1 0 0.2-0.1 0.3-0.1 0.3-0.1 0.7-0.2 1-0.3 0.2 0 0.4-0.1 0.5-0.1 0.3-0.1 0.5-0.1 0.8-0.2 0.2 0 0.5-0.1 0.7-0.1 0.2 0 0.4-0.1 0.7-0.1 0.3 0 0.6-0.1 0.9-0.1 0.2 0 0.4 0 0.6-0.1 0.3 0 0.6-0.1 0.9-0.1h4.6c0.3 0 0.6 0.1 0.9 0.1 0.2 0 0.4 0 0.6 0.1 0.3 0 0.6 0.1 0.9 0.1 0.2 0 0.4 0.1 0.7 0.1 0.2 0 0.5 0.1 0.7 0.1 0.3 0.1 0.5 0.1 0.8 0.2 0.2 0 0.4 0.1 0.5 0.1 0.3 0.1 0.7 0.2 1 0.3 0.1 0 0.2 0.1 0.3 0.1 0.4 0.1 0.8 0.2 1.3 0.4h0.1c4 1.3 7.8 3.5 11 6.3 0.1 0.1 0.2 0.1 0.2 0.2 0.3 0.2 0.5 0.5 0.8 0.7l0.5 0.5 0.5 0.5c0.2 0.3 0.5 0.5 0.7 0.8 0.1 0.1 0.1 0.2 0.2 0.2 1.6 1.8 3 3.8 4.1 5.9l159.6 276.4c8.8 15.3 3.6 34.9-11.7 43.7-15.3 8.9-34.9 3.6-43.7-11.7L448 288 315.7 517.1c-8.9 15.3-28.4 20.6-43.7 11.7-15.3-8.8-20.6-28.4-11.7-43.7l159.5-276.3zM224 64h448c17.7 0 32 14.3 32 32s-14.3 32-32 32H224c-17.7 0-32-14.3-32-32s14.3-32 32-32zM768 768H128c-35.3 0-64-28.7-64-64v-768c0-35.3 28.7-64 64-64h640c35.3 0 64 28.7 64 64V704c0 35.3-28.7 64-64 64z m0-832H128V704h640v-768zM896 896H224c-17.7 0-32-14.3-32-32s14.3-32 32-32h672v-800c0-17.7 14.3-32 32-32s32 14.3 32 32V832c0 35.3-28.7 64-64 64z"  horiz-adv-x="1024" />

    
    <glyph glyph-name="yonghu" unicode="&#58919;" d="M662.24 293.536A319.84 319.84 0 0 1 832 576c0 176.736-143.264 320-320 320S192 752.736 192 576a319.84 319.84 0 0 1 169.76-282.464C188.48 231.584 64 66.24 64-128h128c0 176.448 143.552 320 320 320s320-143.552 320-320h128c0 194.24-124.512 359.584-297.76 421.536zM512 768c105.856 0 192-86.144 192-192s-86.144-192-192-192-192 86.144-192 192 86.144 192 192 192z"  horiz-adv-x="1024" />

    
    <glyph glyph-name="qushifenxi" unicode="&#58933;" d="M1000.96-119.04h-120.64c-266.752 0-533.504 1.344-800.32-1.152-49.856-0.384-62.848 14.72-62.528 63.488 2.24 268.736 0.832 537.472 1.344 806.144 0 27.52-11.264 62.144 38.912 61.568 49.024-0.576 39.616-34.752 39.68-62.4 0.64-237.12 1.856-474.24-0.896-711.296-0.512-54.528 14.72-71.488 69.888-70.912 256.832 2.56 513.6 1.152 770.56 1.024 75.072-0.064 75.072-0.192 64-86.464z m0 0M641.216 757.504L785.28 889.536l51.2-205.056c-61.184 23.68-73.344-11.328-88.832-51.072a647.424 647.424 0 0 0-65.28-125.504c-54.336-81.152-135.744-107.712-230.4-110.272-82.048-2.048-163.84-11.712-257.536-18.816-5.568 8.832-47.424 15.04-39.872 63.488 46.144 13.44 85.248 29.568 125.952 35.456 52.48 7.552 106.176 7.04 159.36 9.984 118.848 6.592 212.992 88.448 231.168 206.528 2.56 16.448-16.448 36.288-29.824 63.232z m0 0M885.12 568.256c0-178.88-3.584-351.232-1.664-523.776 0.192-18.176-8.896-36.736-36.096-37.504l-5.824-0.384c-114.24-6.656-114.24-6.656-114.24 106.88 0 41.344-0.96 123.904-0.96 123.904s45.696 242.624 158.784 330.88z m0 0M401.856 153.344v-65.024c-0.064-81.856-0.128-81.856-79.808-81.856-80.32 0-80.32 0-80.448 81.28-0.128 55.104 1.344 110.272-0.448 165.184-1.088 35.328 11.712 49.472 47.744 48.832 134.464-1.92 110.72 10.496 112.96-107.136 0.256-13.76 0-27.52 0-41.28z m0 0M479.104 112.064c0 13.888 1.216 27.84-0.256 41.536-4.032 39.68 11.072 55.872 53.12 56.768 107.008 2.112 106.944 3.968 106.88-103.296 0-17.664-1.536-35.584-0.128-53.248 3.008-37.056-15.552-46.464-49.536-47.808-110.208-4.352-110.208-5.44-110.08 106.048z m0 0"  horiz-adv-x="1024" />

    
    <glyph glyph-name="fuwuqi" unicode="&#58641;" d="M169.00854781 761.30450719c-41.92261689 0-76.23663188-33.60697406-76.23663094-74.67001313v-74.67481031c0-41.05728281 34.314015-74.60381906 76.23663094-74.60381906h685.98386344c41.92069781 0 76.23375375 33.54653531 76.23375375 74.60381906v74.67481031c0 41.06303906-34.314015 74.67001406-76.23375375 74.67001313H169.00854781z m714.491895-81.04872844v-66.20855062c0-13.27068281-16.19094281-35.12274656-39.08677968-35.12274657H174.943085c-27.28294219 0-37.21700719 22.23580406-37.21700719 39.66910407v61.66219312c0 13.45295906 16.12570687 36.82655156 37.21700719 36.82655156h669.53581406c22.25019469 0 39.08677875-14.65790156 39.08677969-36.82655156h-0.06523594z m-74.30162343-68.22894094c21.03469875 0 38.08713655 16.70227594 38.08713656 37.30047 0 20.60491031-17.05243875 37.30718531-38.08713656 37.30718625-21.04908844 0-38.11783594-16.7147475-38.11783593-37.33884468 0-20.61546281 17.0687475-37.33596656 38.11783593-37.33596563v0.06715406zM169.00854781 495.97624031c-41.92261689 0-76.23663188-33.60697406-76.23663094-74.67001406v-74.67481031c0-41.06303906 34.314015-74.60957437 76.23663094-74.60957438h685.98386344c41.92069781 0 76.23375375 33.54653531 76.23375375 74.60957438v74.67481031c0 41.06303906-34.314015 74.67001406-76.23375375 74.67001406H169.00854781z m714.491895-81.05544468v-66.20183532c0-13.27068281-16.19094281-35.12946188-39.08677968-35.12946187H174.943085c-27.28294219 0-37.21700719 22.24156031-37.21700719 39.67581937v61.65547782c0 13.45967437 16.12570687 36.83326687 37.21700719 36.83326687h669.53581406c22.25019469 0 39.08677875-14.65790156 39.08677969-36.83326687h-0.06523594z m-74.30162343-68.22222562c21.03469875 0 38.08713655 16.70227594 38.08713656 37.30047093 0 20.60491031-17.05243875 37.30718531-38.08713656 37.30718531-21.04908844 0-38.11783594-16.7147475-38.11783593-37.33596563 0-20.62409719 17.0687475-37.33884469 38.11783593-37.33884468v0.06715407zM169.00854781 230.64797250000004c-41.92261689 0-76.23663188-33.61177125-76.23663094-74.67481031v-74.67001407c0-41.06303906 34.314015-74.60765625 76.23663094-74.60765531h685.98386344c41.92069781 0 76.23375375 33.54461719 76.23375375 74.60765531v74.67001407c0 41.06303906-34.314015 74.67481031-76.23375375 74.67481031H169.00854781z m714.55617094-81.05448469v-66.20183531c0-13.26876375-16.19094281-35.12658375-39.08677875-35.12658375H174.943085c-27.28294219 0-37.21700719 22.24156031-37.21700719 39.67294126v61.6554778c0 13.45967437 16.12570687 36.83326687 37.21700719 36.83326688h669.53581406c22.25019469-0.00095906 39.08581969-14.6569425 39.08581969-36.83326688z m-74.30162344-68.22318468c21.03469875 0 38.08234031 16.69747875 38.08234032 37.30046999 0 20.60491031-17.04764156 37.30238906-38.08234032 37.30238907-21.05388562 0-38.11783594-16.7147475-38.11783593-37.33212844 0-20.62409719 17.06491031-37.33884469 38.11783593-37.33884469v0.06811407z"  horiz-adv-x="1024" />

    
    <glyph glyph-name="yonghuming" unicode="&#59067;" d="M502.964706 889.976471c-165.647059 0-298.164706-132.517647-298.164706-298.164706 0-117.458824 66.258824-219.858824 165.647059-268.047059-183.717647-54.211765-316.235294-219.858824-316.235294-415.62353v-18.070588s3.011765-15.058824 27.105882-15.058823c21.082353 0 36.141176 15.058824 36.141177 15.058823v18.070588C114.447059 121.976471 292.141176 293.647059 512 293.647059h6.023529c6.023529 0 15.058824 0 27.105883 3.011765 150.588235 15.058824 259.011765 141.552941 259.011764 295.152941-3.011765 165.647059-135.529412 298.164706-301.17647 298.164706z m0-536.094118c-132.517647 0-237.929412 105.411765-237.929412 237.929412s105.411765 237.929412 237.929412 237.929411 237.929412-105.411765 237.929412-237.929411-105.411765-237.929412-237.929412-237.929412zM963.764706-91.858824c0 126.494118-57.223529 240.941176-144.564706 319.247059-12.047059 6.023529-45.176471 0-45.176471-24.094117 0-6.023529 0-12.047059 3.011765-15.058824 78.305882-69.270588 126.494118-171.670588 126.494118-280.094118v-15.058823s3.011765-15.058824 30.117647-15.058824c21.082353 0 33.129412 15.058824 33.129412 15.058824-3.011765 9.035294-3.011765 6.023529-3.011765 15.058823z"  horiz-adv-x="1024" />

    
    <glyph glyph-name="performance" unicode="&#58893;" d="M1087.728941-9.51717599999995l-966.475294 1.204705V837.451294H1.445647v-545.249882a39.815529 39.815529 0 0 1 0-14.938353V-128h1086.283294v118.482824zM340.751059 534.5882349999999L425.863529 449.415529l-340.751058-340.751058L0 193.837176zM900.397176 731.015529l85.172706-85.172705-461.161411-461.221648-85.232942 85.172706zM564.043294 314.849882L478.870588 229.67717600000003 258.168471 449.957647 343.401412 535.1905879999999z"  horiz-adv-x="1144" />

    
    <glyph glyph-name="pwd" unicode="&#58651;" d="M512 103.44821417000003c-33.66621435 0-56.11035769 22.44414334-56.11035769 56.11035637v112.22071539c0 28.05517818 22.44414334 56.11035769 56.11035769 56.11035638 28.05517818 0 56.11035769-22.44414334 56.11035769-56.11035638v-112.22071539c0-33.66621435-22.44414334-56.11035769-56.11035769-56.11035637zM932.8276794 215.66892824c16.83310717 0 28.05517818 11.22207101 28.05517819 28.05517819V384c0 61.72139255-50.49932153 112.22071407-112.22071407 112.22071407h-56.11035769V552.33107176c0 157.10900076-123.4427864 280.55178583-280.55178583 280.55178583S231.44821417 709.4400725 231.44821417 552.33107176v-56.11035769H175.33785648c-61.72139255 0-112.22071407-50.49932153-112.22071407-112.22071407v-336.66214352c0-61.72139255 50.49932153-112.22071407 112.22071407-112.22071407h673.32428704c61.72139255 0 112.22071407 50.49932153 112.22071407 112.22071407v28.05517819c0 16.83310717-11.22207101 28.05517818-28.05517819 28.0551795s-28.05517818-11.22207101-28.05517819-28.0551795v-28.05517819c0-33.66621435-22.44414334-56.11035769-56.11035769-56.11035769H175.33785648c-33.66621435 0-56.11035769 22.44414334-56.11035769 56.11035769v336.66214352c0 33.66621435 22.44414334 56.11035769 56.11035769 56.11035769h673.32428704c33.66621435 0 56.11035769-22.44414334 56.11035769-56.11035769v-140.27589357c0-16.83310717 11.22207101-28.05517818 28.05517819-28.05517819zM287.55857054 496.22071407V552.33107176c0 123.4427864 100.99864305 224.44142946 224.44142946 224.44142945s224.44142946-100.99864305 224.44142946-224.44142945v-56.11035769H287.55857054z"  horiz-adv-x="1024" />

    
    <glyph glyph-name="fengxianyonghu" unicode="&#58932;" d="M703.385459 613.273657a37.683192 37.683192 0 0 0 0-5.939199v-63.897587a31.948794 31.948794 0 1 0-63.897587 0V707.379238c0 65.331187-64.204787 123.699175-139.468772 123.699175h-40.038392c-75.263985 0-139.673572-58.572788-139.673572-124.108775v-178.483164a89.395182 89.395182 0 0 1 23.961595-46.489591l21.503996-19.046396v-219.545556l-35.123193-17.715197a1391.001322 1391.001322 0 0 1-246.783951-158.207968 53.145589 53.145589 0 0 1-19.353596-40.959992v-90.316782h351.74393a31.948794 31.948794 0 0 0 0-63.897587H28.979194a28.057594 28.057594 0 0 0-28.364794 27.852794V26.316974a116.531177 116.531177 0 0 0 42.700791 90.521582 1506.815699 1506.815699 0 0 0 258.457549 165.887967v151.551969C278.118344 455.680088 255.999949 497.76648 255.999949 528.486474V706.969638C255.999949 810.598417 352.25593 895.0784 459.980708 895.0784h40.038392c107.724778 0 203.571159-84.172783 203.366359-187.801562zM735.948653-63.999808A223.846355 223.846355 0 1 1 511.999898 159.744147a223.743955 223.743955 0 0 1 223.948755-223.743955z m0-63.897587A287.743942 287.743942 0 1 0 1023.999795 159.744147 287.743942 287.743942 0 0 0 735.948653-127.999795z m-32.051194 447.48791H767.999846V128.000154h-64.102387z m0-255.999949H767.999846v-63.999987h-64.102387z"  horiz-adv-x="1024" />

    
    <glyph glyph-name="fuwuqi1" unicode="&#59174;" d="M527.36 184.32c71.68 5.12 143.36 0 215.04 0 20.48 0 40.96 5.12 51.2-15.36 15.36-20.48-5.12-46.08-30.72-46.08h-235.52c-25.6 5.12-30.72 51.2 0 61.44z m-184.32 0c20.48 10.24 46.08-15.36 35.84-35.84-5.12-20.48-35.84-25.6-46.08-10.24-15.36 10.24-10.24 35.84 10.24 46.08z m-97.28 0c20.48 10.24 46.08-15.36 35.84-35.84-5.12-20.48-35.84-25.6-46.08-10.24-20.48 10.24-10.24 35.84 10.24 46.08z m281.6 235.52c71.68 5.12 143.36 0 215.04 0 20.48 0 40.96 5.12 51.2-15.36 15.36-20.48-5.12-46.08-30.72-46.08h-235.52c-25.6 10.24-30.72 56.32 0 61.44z m-184.32 0c20.48 10.24 46.08-15.36 35.84-35.84-5.12-20.48-35.84-25.6-46.08-10.24-15.36 15.36-10.24 40.96 10.24 46.08z m-97.28 0c20.48 10.24 46.08-15.36 35.84-35.84-5.12-20.48-35.84-25.6-46.08-10.24-20.48 15.36-10.24 40.96 10.24 46.08z m281.6 250.88c71.68 5.12 143.36 0 215.04 0 20.48 0 40.96 5.12 51.2-15.36 10.24-15.36 0-40.96-20.48-40.96h-215.04c-15.36 0-30.72 0-40.96 10.24-15.36 10.24-10.24 40.96 10.24 46.08z m-184.32 0c20.48 10.24 46.08-15.36 35.84-35.84-5.12-20.48-30.72-25.6-46.08-10.24-15.36 10.24-10.24 40.96 10.24 46.08z m-97.28 0c20.48 10.24 46.08-15.36 35.84-35.84-5.12-20.48-35.84-25.6-51.2-10.24-15.36 10.24-5.12 40.96 15.36 46.08zM153.6 225.28v-194.56h716.8v194.56H153.6z m0 256v-194.56h716.8V481.28H153.6zM153.6 742.4v-199.68h716.8V742.4H153.6z m-35.84 46.08c10.24 10.24 25.6 5.12 40.96 5.12H870.4c10.24 0 25.6 0 35.84-5.12 15.36-15.36 15.36-40.96 15.36-56.32v-711.68c5.12-25.6-20.48-51.2-46.08-46.08H148.48c-25.6-5.12-51.2 20.48-46.08 46.08V747.52c0 15.36 5.12 30.72 15.36 40.96z"  horiz-adv-x="1024" />

    
    <glyph glyph-name="hardware" unicode="&#58628;" d="M192 96h640a32 32 0 0 1 0 64H192a32 32 0 0 1 0-64zM990.272 299.03999999999996L875.264 782.784A64 64 0 0 1 812.992 832H210.336c-29.664 0-55.456-20.384-62.304-49.28L33.728 299.00800000000004a63.68 63.68 0 0 1-1.728-14.752V32a64 64 0 0 1 64-64h832a64 64 0 0 1 64 64v252.256c0 4.992-0.576 9.952-1.728 14.784zM812.992 768l114.112-480h-384.96c0.896 2.944 1.856 5.92 1.856 9.152V384c0 3.84-0.96 7.424-2.176 10.848C649.792 404.64 736 466.624 736 548.672c0 81.504-85.056 143.168-192 153.6V768h268.992zM512 640c90.56 0 160-44.608 160-91.328s-69.44-91.328-160-91.328-160 44.608-160 91.328S421.44 640 512 640zM210.336 768H480v-65.728c-106.944-10.4-192-72.096-192-153.6 0-82.048 86.208-144.064 194.176-153.824A32.256 32.256 0 0 1 480 384v-86.848c0-3.232 0.96-6.208 1.856-9.152H96.896L210.336 768zM928 32H96v192h832v-192z"  horiz-adv-x="1024" />

    
    <glyph glyph-name="mima" unicode="&#59068;" d="M512 104.1c-33.6 0-56 22.4-56 56V272c0 28 22.4 56 56 56 28 0 56-22.4 56-56v-111.9c0-33.6-22.4-56-56-56z m419.9 112c16.8 0 27.9 11.2 27.9 28V384c-0.2 61.8-50.2 111.8-111.9 111.9h-56v56c0 156.7-123.2 279.9-279.9 279.9S232.1 708.7 232.1 551.9v-56h-56c-61.7-0.1-111.7-50.2-111.9-111.9v-335.9c0.2-61.7 50.2-111.7 111.9-111.9h671.7c61.7 0.2 111.7 50.2 111.9 111.9v28c0 16.8-11.2 28-28 28s-28-11.2-28-28v-28c0-33.6-22.4-56-56-56H176.1c-33.6 0-56 22.4-56 56V384c0 33.6 22.4 56 56 56h671.7c33.6 0 56-22.4 56-56v-139.9c0-16.8 11.3-28 28.1-28zM288.1 495.9v56c0 123.2 100.8 223.9 223.9 223.9 123.1 0 223.9-100.7 223.9-223.9v-56H288.1z"  horiz-adv-x="1024" />

    
    <glyph glyph-name="fuwuqi2" unicode="&#58911;" d="M1037.459007 699.705469V791.510204A102.995592 102.995592 0 0 1 935.957619 896H101.502109A102.995592 102.995592 0 0 1 0.01117 791.510204v-91.825633a103.006041 103.006041 0 0 1 101.501388-104.489795h834.45551a103.006041 103.006041 0 0 1 101.490939 104.510693z m-101.501388-44.773877H101.512558a44.021551 44.021551 0 0 0-43.269225 44.773877V791.510204a44.032 44.032 0 0 0 43.279674 44.784327h834.445061A44.032 44.032 0 0 0 979.237292 791.510204v-91.804735a44.021551 44.021551 0 0 0-43.279673-44.773877zM935.957619 533.274122H101.523007A102.995592 102.995592 0 0 1 0.01117 429.526204v-91.052408a102.995592 102.995592 0 0 1 101.501388-103.747918h834.445061a102.995592 102.995592 0 0 1 101.501388 103.747918v90.331428a103.006041 103.006041 0 0 1-101.501388 104.468898z m0-239.584653H101.512558a44.032 44.032 0 0 0-43.269225 44.784327v91.052408a44.021551 44.021551 0 0 0 43.279674 44.773878h834.445061a44.032 44.032 0 0 0 43.269224-44.784327v-91.052408a44.021551 44.021551 0 0 0-43.279673-44.773878zM1037.459007-23.510204v91.825633a103.006041 103.006041 0 0 1-101.501388 104.489795H101.502109A103.006041 103.006041 0 0 1 0.01117 68.294531V-23.510204a102.995592 102.995592 0 0 1 101.511837-104.489796h834.45551a102.995592 102.995592 0 0 1 101.48049 104.489796z m-101.501388-44.784327H101.512558A44.032 44.032 0 0 0 58.243333-23.510204v91.804735a44.021551 44.021551 0 0 0 43.279674 44.763428h834.445061a44.021551 44.021551 0 0 0 43.269224-44.773877V-23.510204a44.032 44.032 0 0 0-43.279673-44.784327zM895.645456 716.131265H643.38619a29.852735 29.852735 0 1 0 0 59.70547h252.259266a29.852735 29.852735 0 1 0 0-59.70547zM895.645456 352.653061H643.38619a29.852735 29.852735 0 1 0 0 59.70547h252.259266a29.852735 29.852735 0 1 0 0-59.70547zM895.645456-9.330939H643.38619a29.852735 29.852735 0 0 0 0 59.70547h252.259266a29.852735 29.852735 0 0 0 0-59.70547z"  horiz-adv-x="1037" />

    
    <glyph glyph-name="lixian" unicode="&#58994;" d="M273.689 662.378l-40.09-40.067-87.581 87.58 40.091 40.067zM417.646 715.328l-53.894-17.552L325.34 815.531l53.918 17.611zM180.648 478.353l17.563 53.883-117.766 38.437-17.588-53.943zM790.379 145.689l-40.092-40.068 87.58-87.58 40.092 40.08zM843.328 289.646l-17.562-53.882 117.765-38.424 17.612 53.941zM606.353 52.66l53.872 17.563 38.412-117.743-53.919-17.623zM529.103 229.959L375.051 75.92c-47.182-47.193-123.96-47.182-171.166 0-47.182 47.193-47.182 123.973 0 171.166l154.052 154.04-68.457 68.457-154.052-154.04c-84.933-84.945-84.933-223.146 0-308.092 84.934-84.934 223.146-84.945 308.08 0l154.051 154.053-68.456 68.455zM580.445 760.56L426.393 606.52l68.48-68.469 154.052 154.052c47.182 47.182 123.959 47.182 171.143 0 47.182-47.194 47.182-123.984 0-171.166l-154.029-154.04 68.457-68.47 154.029 154.041c84.955 84.957 84.955 223.159 0 308.091-84.933 84.946-223.147 84.946-308.08 0.001z"  horiz-adv-x="1024" />

    
    <glyph glyph-name="xitong" unicode="&#58965;" d="M657.85 533.998c-55.456 55.385-133.897 73.428-204.536 54.555L570.51 471.517a52.966 52.966 0 0 0 0.053-74.911l-74.858-74.964a52.966 52.966 0 0 0-74.893-0.053L303.598 438.607c-18.767-70.656-0.618-149.08 54.837-204.464 65.236-65.148 162.287-78.672 241.011-41.048l208.596-208.296c13.806-13.771 36.158-13.753 49.946 0.035l49.912 49.964a35.31 35.31 0 0 1-0.036 49.93L699.251 293.04c37.5 78.777 23.852 175.81-41.402 240.957zM846.494 48.27a35.31 35.31 0 1 0-49.964 49.93 35.31 35.31 0 0 0 49.964-49.93zM953.38 472.276h-99.858a351.267 351.267 0 0 1-30.932 79.819l76.058 76.058a52.983 52.983 0 0 1 0 74.911l-49.929 49.93a52.966 52.966 0 0 1-74.91 0l-71.716-71.716a351.497 351.497 0 0 1-101.817 44.244V825.379a52.966 52.966 0 0 1-52.966 52.966h-70.62a52.966 52.966 0 0 1-52.966-52.966v-99.857a351.055 351.055 0 0 1-101.817-44.262l-71.716 71.715a52.966 52.966 0 0 1-74.91 0l-49.93-49.928a52.983 52.983 0 0 1 0-74.911l76.06-76.059a350.137 350.137 0 0 1-31.374-79.819H70.621a52.966 52.966 0 0 1-52.966-52.965v-70.621a52.966 52.966 0 0 1 52.966-52.966h99.857c7.239-28.054 17.426-54.907 30.932-79.819l-76.058-76.058a52.983 52.983 0 0 1 0-74.91l49.929-49.93a52.966 52.966 0 0 1 74.91 0l71.716 71.716a350.632 350.632 0 0 1 101.817-44.262v-99.822a52.966 52.966 0 0 1 52.966-52.966h70.62a52.966 52.966 0 0 1 52.966 52.966V42.09a343.181 343.181 0 0 1 46.768 15.943l-69.614 69.614c-20.957-5.332-42.814-8.475-65.43-8.475-146.255 0-264.828 118.573-264.828 264.828S365.745 648.828 512 648.828 776.828 530.255 776.828 384c0-22.616-3.143-44.473-8.475-65.43l69.438-69.438c6.25 15.06 11.617 30.561 15.748 46.592h99.84a52.966 52.966 0 0 1 52.966 52.966v70.62a52.966 52.966 0 0 1-52.966 52.966z"  horiz-adv-x="1024" />

    
    <glyph glyph-name="fengxian" unicode="&#60017;" d="M922.217182 749.327199c-48.509302 15.423142-109.689898 36.029996-183.285805 61.436582A1535.914565 1535.914565 0 0 0 569.212818 881.543844 142.20009 142.20009 0 0 1 444.867734 881.79983a1619.749901 1619.749901 0 0 0-171.31847-71.036049 7250.796674 7250.796674 0 0 0-183.349801-61.436582L64.024919 741.007661v-440.61549c0-35.582021 8.44753-70.65207 25.150601-104.826169 16.255096-33.278149 36.477971-64.252426 60.028661-92.218871 24.958612-29.822341 52.477081-57.276814 82.171429-82.107432 29.246373-24.766622 60.156654-47.485359 92.346863-67.96422 29.246373-18.750957 59.772675-35.454028 91.194927-49.853227 29.950334-13.567245 56.572853-22.974722 80.315533-28.22243l9.855451-1.919893 6.527637-1.279929 16.319093 2.87984c24.958612 5.695683 51.133156 15.167156 80.379528 28.670405 28.926391 13.375256 58.620739 30.078327 89.019049 50.173209 31.230263 20.542857 61.052604 43.32559 89.403027 68.028216a623.64531 623.64531 0 0 1 79.611571 82.299422c22.910726 28.158434 42.42964 59.196707 57.980775 92.346863a244.658391 244.658391 0 0 1 23.870672 104.186205V741.071658l-25.918558 8.319537z m-47.485359-448.935028c0-23.358701-5.503694-46.845394-16.639074-70.780063a377.578997 377.578997 0 0 0-48.18932-76.539743c-21.246818-26.302537-44.797508-50.557188-70.268091-72.507966-25.790565-22.462751-53.117045-43.261594-81.595461-62.140544-27.518469-18.174989-54.076992-33.150156-79.547576-44.925501-25.150601-11.519359-46.717401-19.454918-66.172319-23.806676l-2.431865 0.511972a348.39662 348.39662 0 0 0-65.468358 23.422697c-28.350423 12.991277-55.804896 28.158434-82.171429 44.989497a778.324706 778.324706 0 0 0-84.347308 62.20454 583.19956 583.19956 0 0 0-72.827949 72.699956 370.027417 370.027417 0 0 0-49.917224 76.475746 157.943214 157.943214 0 0 0-17.279038 70.140099V684.306815c53.117045 17.343035 106.170094 35.198042 158.967157 53.565021 60.924611 21.310815 120.697286 46.077437 178.998043 74.235871a71.036049 71.036049 0 0 0 62.140544-0.127993c57.852782-28.22243 117.177482-53.053049 177.782111-74.107878 52.797063-18.366978 105.786116-36.221985 158.967157-53.565021v-383.978641zM544.89417 601.687411H433.412371L358.920515 352.293284H521.599466l-56.828839-249.586117 188.725502 329.581667H489.217267l55.676903 169.398577z"  horiz-adv-x="1024" />

    
    <glyph glyph-name="qushifenxi1" unicode="&#58929;" d="M99.318 714.695H926.703c18.798 0 34.437-15.638 34.437-34.481v-299.992c0-18.325-15.64-34.234-34.437-34.234-19.091 0-34.481 15.39-34.481 34.234V645.756H133.799v-526.421h497.762c19.091 0 34.729-14.894 34.729-34.21 0-19.068-15.885-34.233-34.729-34.233H547.48v-41.093h190.954c11.488 0 21.28-9.5 21.28-21.009 0-11.486-9.792-21.009-21.28-21.009H287.318c-11.488 0-20.514 9.523-20.514 21.009 0 11.509 9.026 21.009 20.514 21.009h191.449l-0.248 3.182v37.911h-379.2c-19.068 0-34.458 15.164-34.458 34.233V680.214c-0.001 18.843 15.389 34.481 34.457 34.481zM596.429 494.877H674.9L513.989 333.966l-91.799 91.841-1.584 1.543c-12.259 12.033-32.088 12.033-44.347 0L224.706 275.593c-12.671-12.713-12.671-32.316 0-44.801 12.053-12.033 31.656-12.033 44.141 0l129.482 129.914 93.815-93.363c12.034-12.033 32.088-12.033 44.141 0l182.941 182.735v-77.771c0-17.155 14.049-31.429 31.429-31.429 17.155 0 31.204 14.275 31.204 31.429V526.306c-0.433 16.496-12.486 29.414-28.962 31.183h-0.226l-0.473 0.473H596.429c-17.36 0-31.409-14.501-31.409-31.656 0-17.833 14.049-31.429 31.409-31.429zM973.226 41.592l-53.583 53.663c8.639 10.494 15.871 22.045 21.069 34.735 6.605 15.944 10.225 33.49 10.225 51.728 0 18.067-3.62 35.085-9.965 51.037l-0.26 0.707c-6.792 16.213-16.57 30.928-28.829 43.268l-0.61 0.618c-12.251 12.43-27.324 22.468-43.805 29.35-16.042 6.605-33.49 10.395-51.736 10.395-37.281 0-71.129-15.334-95.631-39.746-12.511-12.43-22.468-27.316-29.431-43.886-6.524-16.131-10.225-33.588-10.225-51.744 0-17.978 3.701-35.345 10.046-51.118l0.179-0.61c6.866-16.66 16.92-31.644 29.431-43.983 12.519-12.52 27.324-22.469 43.895-29.261 15.952-6.703 33.498-10.225 51.736-10.225 18.246 0 35.784 3.522 51.736 10.225 12.69 5.198 24.323 12.341 34.719 20.979l53.689-53.672c4.84-4.767 12.592-4.767 17.351 0a12.238 12.238 0 0 1-0.001 17.54z m-79.403 62.042l-0.268-0.179c-10.046-10.136-22.216-18.238-35.605-23.973-12.869-5.198-27.234-8.28-42.219-8.28-15.073 0-29.35 3.082-42.3 8.28a113.53 113.53 0 0 0-35.784 24.152h-0.089 0.089c-10.225 10.396-18.425 22.387-24.062 35.955l-0.179 0.447c-5.288 12.869-8.102 27.056-8.102 41.682 0 15.073 2.904 29.26 8.281 42.308 5.637 13.398 13.747 25.559 24.062 35.605 20.011 20.182 47.506 32.53 78.084 32.53 14.984 0 29.35-3.091 42.219-8.289 13.577-5.726 25.648-13.845 35.874-24.241l0.61-0.52c9.875-9.876 17.807-21.956 23.363-35.085l0.26-0.7c5.109-12.869 8.11-26.795 8.11-41.609 0-14.984-3.002-29.35-8.371-42.129-5.556-13.747-13.837-25.908-23.973-35.954z"  horiz-adv-x="1024" />

    
    <glyph glyph-name="yonghuming1" unicode="&#58891;" d="M357.353003 616.650005a278.593995 278.593995 0 0 1 93.215998-208.303995 216.635996 216.635996 0 0 1 62.143999-9.064c119.836998 0 217.329996 97.493998 217.329996 217.329995S632.549998 834.005001 512.714 834.005001a216.635996 216.635996 0 0 1-62.179999-9.052 278.593995 278.593995 0 0 1-93.179998-208.302996zM511.97 834.005001c119.835998 0 217.329996-97.493998 217.329996-217.329996s-97.493998-217.318996-217.329996-217.318995-217.330996 97.481998-217.330996 217.293995 97.493998 217.354996 217.329996 217.354996m0 61.994999c-154.255997-0.025-279.299995-125.069998-279.299995-279.349995s125.043998-279.276995 279.299995-279.276994S791.269995 462.418008 791.269995 616.650005 666.274997 895.975 511.97 895.975zM918.074992 25.215017a424.208992 424.208992 0 0 1-16.962 46.396999q-5.406 12.4-11.579999 24.513a426.675992 426.675992 0 0 1-125.453998 148.007997 420.934992 420.934992 0 0 1-252.617995 83.320998 430.246992 430.246992 0 0 1-48.355999-2.715C296.957004 256.817012 179.923006 93.570016 179.923006-97.001981H935.929992a425.113992 425.113992 0 0 1-17.855 122.216998zM238.694005 236.358013a30.997999 30.997999 0 0 0-18.597999 55.795999 482.334991 482.334991 0 0 0 35.274999 24.165999 31.000999 31.000999 0 1 0 32.733999-52.658999c-10.59-6.584-20.955-13.639-30.799999-21.077999a30.835999 30.835999 0 0 0-18.61-6.225zM56.528009-127.99998a30.997999 30.997999 0 0 0-30.997999 30.997999A486.042991 486.042991 0 0 0 146.012007 223.450013a30.997999 30.997999 0 1 0 46.619999-40.854999 424.046992 424.046992 0 0 1-105.093998-279.609995A30.997999 30.997999 0 0 0 56.528009-127.99998z m910.882982 0a30.997999 30.997999 0 0 0-30.997999 30.997999 422.112992 422.112992 0 0 1-34.804 168.626997q-5.406 12.399-11.579999 24.513a426.687992 426.687992 0 0 1-125.453998 147.994997A425.286992 425.286992 0 0 1 357.540003 298.490012a30.997999 30.997999 0 1 0-22.554 57.717999A487.14599 487.14599 0 0 0 801.499994 293.902012a487.87799 487.87799 0 0 0 143.754998-169.494997q7.067-13.8 13.279999-28.095999a484.319991 484.319991 0 0 0 39.911999-193.275997A30.997999 30.997999 0 0 0 967.409991-127.99998z"  horiz-adv-x="1024" />

    
    <glyph glyph-name="kejian" unicode="&#58943;" d="M798.47424 382.976c-37.92896 58.59328-85.4016 102.64576-142.09024 131.74784a162.63168 162.63168 0 0 0 22.97856-83.88608c0-45.95712-16.46592-85.4016-49.02912-118.33344-32.5632-32.93184-71.9872-49.00864-118.33344-49.00864-45.95712 0-85.4016 16.46592-118.33344 49.00864-32.5632 32.5632-49.02912 72.00768-49.02912 118.33344 0 30.26944 7.65952 58.22464 22.97856 83.88608-57.05728-29.10208-104.5504-73.15456-142.45888-131.74784 32.93184-50.93376 74.67008-91.5456 124.45696-121.79456 49.78688-30.24896 103.79264-45.17888 162.38592-45.17888 58.59328 0 112.2304 14.9504 162.38592 45.17888 49.7664 30.26944 91.136 70.8608 124.08832 121.79456z m-268.4928 143.23712a17.36704 17.36704 0 0 1-5.3248 12.63616 17.36704 17.36704 0 0 1-12.65664 5.36576c-31.0272 0-57.83552-11.12064-80.03584-33.32096-22.2208-22.2208-33.32096-49.02912-33.32096-80.05632 0-4.97664 1.90464-9.17504 5.36576-12.63616a17.36704 17.36704 0 0 1 12.63616-5.34528 17.36704 17.36704 0 0 1 12.63616 5.34528 17.36704 17.36704 0 0 1 5.36576 12.63616c0 21.46304 7.65952 39.8336 22.97856 54.784 15.31904 15.31904 33.32096 22.58944 54.76352 22.97856a17.36704 17.36704 0 0 1 12.63616 5.34528 17.03936 17.03936 0 0 1 4.97664 12.26752z m316.35456-143.23712c0-8.41728-2.29376-17.24416-7.2704-25.66144-34.85696-57.05728-81.57184-103.0144-140.55424-137.48224-58.9824-34.46784-121.0368-51.712-186.51136-51.712-65.49504 0-127.52896 17.24416-186.51136 52.08064-58.9824 34.46784-105.69728 80.42496-140.55424 137.50272-4.97664 8.8064-7.2704 17.22368-7.2704 25.66144 0 8.41728 2.29376 17.22368 7.2704 25.66144 34.85696 56.66816 81.96096 102.62528 140.55424 137.09312 58.9824 34.46784 121.0368 52.08064 186.51136 52.08064 65.49504 0 127.52896-17.22368 186.51136-52.08064 58.9824-34.46784 105.69728-80.42496 140.55424-137.48224 4.97664-8.43776 7.2704-17.24416 7.2704-25.66144z"  horiz-adv-x="1024" />

    
    <glyph glyph-name="shuju-2" unicode="&#58952;" d="M631.840184 189.279851a810.39962 810.39962 0 0 1 184.959913 21.59999 674.239684 674.239684 0 0 0-142.559933 97.759954 771.039639 771.039639 0 0 0-91.999957-103.039951v-7.839997a53.439975 53.439975 0 0 0 0-6.879996c16.479992-0.96 32.959985-1.599999 49.599977-1.6zM373.280305 615.359652a72.479966 72.479966 0 0 0-72.479966-72.479966 70.399967 70.399967 0 0 0-8.159996 0.799999 704.95967 704.95967 0 0 1-103.519952-220.959896 800.959625 800.959625 0 0 1 253.279882-110.719948 70.559967 70.559967 0 0 0 115.519945 39.519981 698.559673 698.559673 0 0 1 79.999963 92.319957 666.719687 666.719687 0 0 0-179.199916 367.999827 707.839668 707.839668 0 0 1-88.799958-76.159964 73.439966 73.439966 0 0 0 3.359998-20.31999zM132.800418 301.11979899999994a893.279581 893.279581 0 0 0-82.879961 68.159968c-16.799992 15.999993-33.119984 31.999985-47.999978 49.119977C0.00048 407.039749 0.00048 395.519755 0.00048 383.99976000000004a509.599761 509.599761 0 0 1 119.679944-328.799846 751.999648 751.999648 0 0 0-4.639998 83.039961v8.639996a752.959647 752.959647 0 0 0 17.759992 154.239928z m756.159645-121.919943a853.1196 853.1196 0 0 0-257.119879-39.519981c-25.279988 0-50.399976 1.279999-75.199965 3.519998a69.439967 69.439967 0 0 0-44.639979-15.999993 68.159968 68.159968 0 0 0-22.879989 4.159998 753.439647 753.439647 0 0 0-260.479878-111.999947c-17.119992-3.839998-34.559984-7.199997-51.999976-9.759995l-11.839994-1.44c4.639998-4.319998 9.439996-8.479996 14.399993-12.639994a511.99976 511.99976 0 0 1 790.879629 159.999925c-15.999993 3.839998-33.119984 8.159996-49.279977 13.119994-10.719995 3.039999-21.27999 7.359997-31.839985 10.559995zM228.320373 615.359652a72.319966 72.319966 0 0 0 111.999947 61.119971 761.919643 761.919643 0 0 0 113.599947 92.639956c0 12.159994-0.96 24.319989-0.959999 36.639983s0 24.639988 0.959999 36.799983c0.96 16.959992 2.719999 33.919984 4.959998 50.559976a511.99976 511.99976 0 0 1-447.99979-408.159808c13.599994-15.999993 27.999987-31.999985 42.71998-47.999978a813.279619 813.279619 0 0 1 93.439956-83.679961 751.999648 751.999648 0 0 0 100.639953 213.119901 72.479966 72.479966 0 0 0-19.359991 48.959977z m276.47987 127.99994a615.519711 615.519711 0 0 1 161.759925-356.799833A711.999666 711.999666 0 0 1 721.760142 495.999708a69.119968 69.119968 0 0 0 36.319983 119.839943 707.839668 707.839668 0 0 1 14.719993 143.999933v7.039997c0 20.47999-1.279999 40.639981-3.199999 60.799971L752.000128 835.999548a686.879678 686.879678 0 0 1-79.999963-18.559991 701.759671 701.759671 0 0 1-167.199922-74.399965z m82.559962 97.119954a762.239643 762.239643 0 0 0 87.039959 29.439986A514.079759 514.079759 0 0 1 512.00024 895.99952h-3.679998a679.359682 679.359682 0 0 1-6.559997-90.079958v-6.719997a763.359642 763.359642 0 0 0 85.59996 40.959981zM169.280401 58.39991299999997l12.799994 2.079999A703.99967 703.99967 0 0 1 443.360272 159.999865a847.999603 847.999603 0 0 0-266.079875 110.239948 711.839666 711.839666 0 0 1-12.639994-132.799937c0-20.95999 1.119999-41.75998 2.879998-62.239971 0.48-5.119998 0.96-11.199995 1.76-16.799992z m821.119615 143.999932c2.559999 6.719997 4.959998 13.439994 7.359996 20.319991-10.719995-4.959998-21.59999-9.919995-31.999985-14.559994 7.839996-2.879999 16.159992-4.799998 24.639989-6.559996zM821.600095 791.839569v-65.11997a767.99964 767.99964 0 0 0-14.879993-122.399942 69.599967 69.599967 0 0 0-38.399982-127.99994 749.439649 749.439649 0 0 0-65.599969-126.879941 621.919708 621.919708 0 0 1 187.679912-118.079944c22.719989 7.679996 44.959979 15.999993 66.559968 26.079987s39.039982 18.079992 57.759973 28.319987A511.99976 511.99976 0 0 1 821.600095 791.839569zM121.440423 53.11991499999999l-1.759999 2.079999v-2.239999z"  horiz-adv-x="1024" />

    
    <glyph glyph-name="fengxian1" unicode="&#59611;" d="M475.429 640v-292.571c0-21.943 14.628-36.572 36.571-36.572s36.571 14.629 36.571 36.572V640c0 21.943-14.628 36.571-36.571 36.571S475.429 661.943 475.429 640zM512 237.714c-21.943 0-36.571-14.628-36.571-36.571S490.057 164.57 512 164.57s36.571 14.629 36.571 36.572-14.628 36.571-36.571 36.571zM936.229 815.543C782.629 874.057 658.286 896 512 896S241.371 874.057 87.771 815.543c-7.314-7.314-14.628-14.629-14.628-29.257v-460.8c0-190.172 270.628-373.029 431.543-453.486h14.628c160.915 80.457 431.543 263.314 431.543 453.486v460.8c0 14.628-7.314 21.943-14.628 29.257zM877.714 332.8c0-124.343-182.857-277.943-365.714-380.343-182.857 95.086-365.714 256-365.714 380.343V757.029C270.629 800.914 380.343 822.857 512 822.857s241.371-21.943 365.714-65.828V332.8z"  horiz-adv-x="1024" />

    
    <glyph glyph-name="banben1" unicode="&#58940;" d="M58.879926 749.311543v-730.623086c0-48.703939 39.93595-88.19189 89.087889-88.19189h588.415265c49.087939 0 89.023889 39.61595 89.023888 88.19189V749.311543c0 48.703939-39.80795 88.19189-89.023888 88.19189H147.967815c-48.959939 0-88.959889-39.61595-88.959889-88.19189H58.943926z m-58.879926 0A147.519816 147.519816 0 0 0 147.967815 895.99936h588.415265c39.231951 0 76.799904-15.359981 104.575869-42.879946 27.775965-27.519966 43.391946-64.895919 43.391946-103.807871v-730.623086A147.519816 147.519816 0 0 0 736.447079-127.99936H147.967815a148.479814 148.479814 0 0 0-104.575869 42.879946A146.175817 146.175817 0 0 0 0 18.752457V749.311543zM880.510899 23.93645c49.471938 0 85.951893 32.25596 85.951893 67.711915v631.039212c0 35.327956-36.927954 67.775915-86.527892 67.775915H863.99892a57.151929 57.151929 0 0 0-2.175997 0.128l2.175997 58.879926h15.93598c79.551901 0 144.06382-56.703929 144.06382-126.719841v-630.975212c0-69.951913-63.80792-126.719842-143.487821-126.719841h-49.599938l2.175998 58.943926h47.35994z m0 0c49.471938 0 85.951893 32.25596 85.951893 67.711915v631.039212c0 35.327956-36.927954 67.775915-86.527892 67.775915H863.99892a57.151929 57.151929 0 0 0-2.175997 0.128l2.175997 58.879926h15.93598c79.551901 0 144.06382-56.703929 144.06382-126.719841v-630.975212c0-69.951913-63.80792-126.719842-143.487821-126.719841h-49.599938l2.175998 58.943926h47.35994z m-432.639459 304.25562c5.887993-7.67999 14.719982-10.239987 23.679971-10.239987 8.895989 0 17.855978 5.119994 23.74397 12.799984l178.111777 257.727677c8.831989 12.927984 2.879996 28.351965-8.959989 36.031955a35.135956 35.135956 0 0 1-41.535948-7.67999L468.543414 392.575989 287.551641 616.767709c-8.895989 12.927984-26.687967 15.487981-41.599948 5.119994-14.783982-7.67999-17.791978-23.167971-5.887993-36.031955l207.74374-257.663678z m201.727748-113.343859H263.80767c-17.791978 0-29.631963-10.303987-29.631963-25.791967 0-15.359981 11.839985-25.727968 29.631963-25.727968h385.791518c17.855978 0 29.695963 10.303987 29.695963 25.791968 0 15.487981-11.839985 25.791968-29.695963 25.791967v-0.064z"  horiz-adv-x="1024" />

    
    <glyph glyph-name="bukejian" unicode="&#59412;" d="M1005.437747 625.152c-10.752 8.704-23.552 12.288-36.864 10.752-13.824-1.536-26.112-9.216-34.816-20.992-20.48-24.064-206.848-233.984-420.864-233.984-208.896 0-401.408 211.968-423.424 236.544-8.704 10.24-21.504 16.384-35.328 17.408-13.824 1.024-26.624-3.584-36.864-12.288-20.48-18.432-23.04-51.712-6.144-71.168 4.608-7.168 43.52-51.712 103.936-102.4L36.221747 365.568c-9.728-9.728-14.848-23.04-14.336-36.864 0.512-13.312 5.632-25.6 14.848-34.816 12.8-19.968 49.152-22.528 70.144-1.024l88.576 94.208c45.056-30.72 92.672-55.808 140.8-74.752L302.461747 196.608c-7.68-28.672 8.192-56.832 35.84-64.512l14.848-0.512c23.552 0 44.032 16.384 48.64 38.4l33.28 115.712c54.784-9.216 101.376-9.216 155.648 0l33.28-113.152c4.608-22.016 26.112-39.424 48.64-39.424 4.096 0 10.24 0 15.872 3.072 25.6 8.704 39.936 36.352 32.768 64l-33.28 113.664c47.616 18.432 95.744 44.032 140.288 74.752l87.04-92.672c19.968-19.968 52.224-19.968 71.68 0 19.456 19.968 20.48 50.688 2.048 72.192l-78.848 83.968c51.712 40.96 86.528 78.848 99.84 94.208l5.632 6.656c14.848 23.04 10.24 53.76-10.24 72.192z"  horiz-adv-x="1024" />

    
    <glyph glyph-name="bingzhuangtu1" unicode="&#59871;" d="M620.25 714a351.75 351.75 0 0 0 214.56-209.56 46.94 46.94 0 0 1 88.79 30.48c-0.22 0.63-0.44 1.25-0.68 1.87a440.37 440.37 0 0 1-272.3 266A46.92 46.92 0 0 1 620.25 714zM903.06 431.1a19.33 19.33 0 0 1-3.86-0.4 19.12 19.12 0 0 1-3.84 0.4H554.77V775.28a16.07 16.07 0 0 1-0.13 2 16.36 16.36 0 0 1 0.13 2.06 47 47 0 0 1-46.93 46.94C264 826.33 65.67 628 65.67 384.16S264-58 507.84-58 950 140.35 950 384.16a47 47 0 0 1-46.94 46.94zM743.15 127.72a346.82 346.82 0 0 0-235.31-91.85c-192 0-348.3 156.24-348.3 348.29A348.69 348.69 0 0 0 460.9 729.11v-345a47 47 0 0 1 46.94-46.93h345a347.67 347.67 0 0 0-109.69-209.46z"  horiz-adv-x="1024" />

    
    <glyph glyph-name="xinxi1" unicode="&#59227;" d="M183.725358 83.493921c-205.104647 144.783401-245.9394 416.663419-84.617303 622.202478C302.537112 964.885373 744.954972 951.635799 945.52932 712.646995c174.944024-208.486857 129.858237-509.720732-61.810659-637.344848-210.162447-140.035896-380.234848-81.793623-651.215012-152.323558-29.19871-7.602215-52.750061-23.706498-70.343757-48.188731-3.94074-5.523242-3.506328-1.861767-4.840594 3.227062-29.012533 111.395716 10.581042 112.357629 26.40606 205.477001zM279.265026 523.646632v-62.058895h496.471158v62.058895H279.265026z m0-186.176685v-62.058894h279.265027v62.058894H279.265026z"  horiz-adv-x="1055" />

    
    <glyph glyph-name="gaojing" unicode="&#59045;" d="M859.9 665.5L522.5 811.8c-6.8 2.9-14.4 2.9-21.2 0L164 665.5c-10.6-4.6-17.5-15.1-17.5-26.7v-354.2c0-174.1 298-304.9 355.8-328.6 6.3-2.6 13.2-2.6 19.3 0 57.9 23.7 355.8 154.4 355.8 328.6V638.7c0 11.6-6.9 22.2-17.5 26.8z m-348-485.8V347.8H396.3l115.6 241v-168h115.6L511.9 179.7z m0 0"  horiz-adv-x="1024" />

    
    <glyph glyph-name="zhongduan" unicode="&#58969;" d="M960 816H64c-17.6 0-32-14.4-32-32v-640c0-17.6 14.4-32 32-32h896c17.6 0 32 14.4 32 32v640c0 17.6-14.4 32-32 32z m-32-640H96v576h832v-576zM795.84 16H228.16c-17.6 0-32-14.4-32-32s14.4-32 32-32h567.36c17.6 0 32 14.4 32 32s-14.08 32-31.68 32zM763.2 386.24l79.36 33.92-192.32 79.36 79.04-192.32z"  horiz-adv-x="1024" />

    
    <glyph glyph-name="tanhao" unicode="&#58885;" d="M0 896h1024v-1024H0zM512-64C264.576-64 64 136.576 64 384S264.576 832 512 832s448-200.576 448-448-200.576-448-448-448z m0 64c212.077 0 384 171.923 384 384S724.077 768 512 768 128 596.077 128 384s171.923-384 384-384z m-24 616h48a8 8 0 0 0 8-8v-304a8 8 0 0 0-8-8h-48a8 8 0 0 0-8 8V608a8 8 0 0 0 8 8z m24-464c-22.091 0-40 17.909-40 40s17.909 40 40 40 40-17.909 40-40-17.909-40-40-40z"  horiz-adv-x="1024" />

    
    <glyph glyph-name="caozuoxitong1" unicode="&#58898;" d="M787.333831 307.053907a75.189984 75.189984 0 0 1-75.093984-75.092984 75.189984 75.189984 0 0 1 75.093984-75.093984 75.165984 75.165984 0 0 1 75.067984 75.093984 75.165984 75.165984 0 0 1-75.067984 75.092984m0-222.841953a147.919968 147.919968 0 0 0-147.749968 147.748969c0 81.455982 66.292986 147.747968 147.749968 147.747968 81.431983 0 147.747968-66.291986 147.747968-147.747968 0-81.480982-66.315986-147.748968-147.747968-147.748969m89.452981-102.106978c0.342-0.244 1.317-0.585 2.315999-0.585h0.122l71.484985 39.496992c-1.706 4.022999-9.605998 23.478995-9.605998 43.739991a113.858976 113.858976 0 0 0 107.739977 113.613975c0.853 4.729999 5.557999 31.524993 5.557998 51.639989s-4.704999 46.88399-5.559998 51.637989a113.858976 113.858976 0 0 0-107.737977 113.565976c0 20.357996 7.923998 39.813991 9.605998 43.81299l-70.313985 39.057992-0.293 0.025a5.339999 5.339999 0 0 1-2.706-0.732 196.753958 196.753958 0 0 0-26.014994-21.819995c-21.699995-15.239997-42.153991-22.967995-60.951987-22.967995-18.919996 0-39.594991 7.874998-61.390987 23.405995a194.705958 194.705958 0 0 0-26.160994 22.283995 5.777999 5.777999 0 0 1-2.729999 0.707h-0.245l-72.824985-40.032992c1.706-4.046999 9.579998-23.479995 9.579998-43.73999A113.858976 113.858976 0 0 0 528.896886 281.649912c-0.854-4.729999-5.509999-31.524993-5.509998-51.639989s4.655999-46.90799 5.533998-51.661989a113.858976 113.858976 0 0 0 107.763977-113.589975c0-20.334996-7.972998-39.863991-9.679998-43.788991l68.973985-38.545992h0.146c1.024 0 1.95 0.365 2.317 0.585a200.849957 200.849957 0 0 0 26.428994 23.161995c22.088995 16.188997 43.079991 24.429995 62.414987 24.429995 19.552996 0 40.715991-8.387998 62.949986-24.917995 14.921997-11.068998 25.259995-22.185995 26.551995-23.575995m22.673995-108.397976c-13.774997 0.025-27.135994 5.704999-35.765993 15.213996-11.775997 12.896997-49.005989 46.44599-79.530982 46.44599-30.280993 0-68.119985-33.767993-78.993984-45.54399-8.606998-9.386998-21.869995-14.969997-35.499992-14.969997-6.483999 0-12.603997 1.243-18.186996 3.706l-0.975 0.414-92.69698 51.833988-0.926 0.683a44.46999 44.46999 0 0 0-14.920996 53.735989c0.049 0.146 8.532998 19.699996 8.532998 37.594992a98.376979 98.376979 0 0 1-98.254979 98.254978h-3.900999c-15.505997 0-28.159994 13.799997-32.182993 35.108993-0.341 1.706-7.923998 42.178991-7.923999 74.044984 0 31.913993 7.557998 72.361984 7.899999 74.117984 4.119999 21.576995 16.992996 35.449992 32.816993 35.083993h3.266999a98.400979 98.400979 0 0 1 98.279979 98.303978c0 17.846996-8.484998 37.399992-8.559998 37.619992a44.34899 44.34899 0 0 0 15.068996 53.661989l0.95 0.658 97.839979 53.759988 1.025 0.415c5.485999 2.364999 11.507998 3.534999 17.895996 3.534999 13.604997 0 26.891994-5.436999 35.595992-14.629997 11.579998-12.115997 48.17699-43.640991 77.774984-43.64099 29.354994 0 65.755986 30.914993 77.287983 42.812991 8.654998 8.996998 21.844995 14.335997 35.302992 14.335997 6.509999 0 12.653997-1.22 18.285997-3.657l0.974999-0.414 94.47698-52.516988 0.95-0.658c16.895996-11.751997 23.332995-34.889993 14.945997-53.735989-0.05-0.146-8.532998-19.699996-8.532999-37.545992a98.400979 98.400979 0 0 1 98.254979-98.279978h3.29c15.775997 0.34 28.719994-13.506997 32.817993-35.107993 0.317-1.707 7.899998-42.203991 7.899998-74.069984 0-31.889993-7.582998-72.410984-7.949998-74.117984-4.045999-21.551995-16.991996-35.424992-32.766993-35.059993h-3.291a98.400979 98.400979 0 0 1-98.254979-98.278978c0-17.846996 8.483998-37.449992 8.556999-37.619992a44.42199 44.42199 0 0 0-15.017997-53.710989l-0.927-0.683-96.133979-53.100988-0.975-0.415a44.88499 44.88499 0 0 0-17.846996-3.583999z m222.061952 705.339848a48.76199 48.76199 0 1 0-97.523979 0V774.022806c0 13.457997-10.873998 24.453995-24.307995 24.453995H121.829974c-13.262997 0-24.306995-10.970998-24.306995-24.453995v-584.995874c0-13.457997 10.873998-24.453995 24.307995-24.453995h219.499953a48.76199 48.76199 0 1 0 0-97.523979H48.908989A48.76199 48.76199 0 0 0 0 115.808948V847.23879C0 874.177785 21.893995 895.99878 48.907989 895.99878h1023.706781a48.76199 48.76199 0 0 0 48.907989-48.76099v-268.189942zM219.427953-79.23701c0 26.940994 21.991995 48.76199 48.981989 48.761989h194.607959a48.76199 48.76199 0 1 0 0-97.523979H268.433942a48.76199 48.76199 0 0 0-49.005989 48.76199z"  horiz-adv-x="1167" />

    
    <glyph glyph-name="xinxi2" unicode="&#59248;" d="M0 778.04557V177.551432a125.12759 125.12759 0 0 1 124.901069-118.017353h125.089837l-0.679563-156.148359a31.259875 31.259875 0 0 1 45.480349-27.93757l330.556815 184.085929h375.433108a124.913654 124.913654 0 0 1 124.951407 125.089836V770.973086A125.115006 125.115006 0 0 1 1004.179427 896H121.301905A125.115006 125.115006 0 0 1 0 778.04557z m880.914342-207.316898a93.8803 93.8803 0 1 0-93.8803-93.8803 93.918053 93.918053 0 0 0 93.905469 93.8803z m-318.135922 0a93.8803 93.8803 0 1 0-93.8803-93.8803 93.918053 93.918053 0 0 0 93.943222 93.8803z m-318.135923 0a93.8803 93.8803 0 1 0-93.8803-93.8803 93.918053 93.918053 0 0 0 93.905469 93.8803z"  horiz-adv-x="1125" />

    
    <glyph glyph-name="zhongduan1" unicode="&#59114;" d="M989.696 65.536H34.304c-16.896 0-31.744 14.848-31.744 31.744V797.696c0 16.896 14.848 31.744 31.744 31.744h955.392c16.896 0 31.744-14.848 31.744-31.744V97.28c0-16.896-14.848-31.744-31.744-31.744zM66.048 129.024H957.44V765.952H66.048v-636.928z m796.16-190.976H161.792c-16.896 0-31.744 14.848-31.744 31.744s14.848 31.744 31.744 31.744h700.416c16.896 0 31.744-14.848 31.744-31.744s-14.848-31.744-31.744-31.744zM660.48 443.392c-16.896 6.144-23.552 0-14.848-14.848l99.84-218.624c6.144-16.896 16.896-14.848 18.944 2.048l18.944 91.136 91.136 18.944c16.896 4.096 18.944 12.8 2.048 18.944l-216.064 102.4z"  horiz-adv-x="1024" />

    
    <glyph glyph-name="kejian1" unicode="&#59008;" d="M979.627 358.4l-5.12 8.533c-6.827 8.534-13.654 18.774-20.48 27.307-3.414 3.413-5.12 6.827-8.534 10.24-3.413 5.12-8.533 10.24-11.946 15.36-3.414 3.413-6.827 8.533-10.24 11.947l-11.947 11.946-10.24 10.24-10.24 10.24 85.333 105.814-39.253 29.013-83.627-104.107c-3.413 1.707-5.12 3.414-8.533 6.827L829.44 512c-3.413 3.413-8.533 5.12-11.947 8.533l-15.36 10.24c-5.12 3.414-8.533 5.12-13.653 6.827-5.12 3.413-10.24 5.12-15.36 8.533-5.12 1.707-8.533 5.12-13.653 6.827-5.12 3.413-11.947 5.12-17.067 8.533-1.707 0-3.413 1.707-5.12 1.707l52.907 121.173-46.08 18.774-46.08-105.814-6.827-17.066h-1.707c-10.24 3.413-18.773 5.12-29.013 8.533-1.707 0-3.413 1.707-6.827 1.707-23.893 5.12-47.786 10.24-71.68 13.653h-1.706c-11.947 1.707-23.894 1.707-34.134 3.413h-1.706V737.28h-49.494v-129.707h-6.826c-8.534 0-15.36-1.706-23.894-1.706-3.413 0-8.533 0-11.946-1.707-8.534-1.707-17.067-1.707-25.6-3.413-3.414 0-6.827-1.707-10.24-1.707-10.24-1.707-18.774-3.413-29.014-5.12-1.706 0-5.12-1.707-6.826-1.707-11.947-3.413-23.894-6.826-34.134-10.24l-46.08 124.587-46.08-17.067L273.067 640l29.013-75.093c-3.413-1.707-5.12-1.707-8.533-3.414-5.12-1.706-10.24-5.12-15.36-6.826-5.12-1.707-10.24-5.12-15.36-6.827-5.12-3.413-10.24-5.12-15.36-8.533-5.12-3.414-10.24-5.12-13.654-8.534-5.12-3.413-10.24-5.12-15.36-8.533-5.12-3.413-8.533-5.12-13.653-8.533-5.12-3.414-10.24-6.827-13.653-10.24-1.707-1.707-5.12-3.414-6.827-5.12l-83.627 104.106L61.44 573.44l80.213-104.107h-1.706c-3.414-3.413-6.827-6.826-11.947-10.24-5.12-3.413-8.533-8.533-13.653-13.653l-6.827-6.827-17.067-17.066v-1.707c-15.36-17.067-29.013-34.133-40.96-52.907l-5.12-8.533 5.12-8.533C153.6 204.8 325.973 116.053 512 116.053s360.107 87.04 462.507 233.814l5.12 8.533zM512 167.253c-160.427 0-308.907 71.68-402.773 191.147C203.093 482.987 351.573 558.08 512 558.08c160.427 0 308.907-73.387 402.773-199.68h1.707C820.907 237.227 672.427 167.253 512 167.253zM658.773 358.4c0-80.213-64.853-146.773-146.773-146.773-80.213 0-146.773 64.853-146.773 146.773 0 80.213 64.853 146.773 146.773 146.773 80.213-1.706 146.773-66.56 146.773-146.773z"  horiz-adv-x="1024" />

    
    <glyph glyph-name="banben2" unicode="&#59144;" d="M424.192 445.724444l103.936 160.568889a42.666667 42.666667 0 0 0 71.623111-46.364444L462.506667 347.875556a42.666667 42.666667 0 0 0-38.286223-19.427556 42.666667 42.666667 0 0 0-38.286222 19.427556l-137.272889 212.053333a42.666667 42.666667 0 0 0 71.623111 46.364444l103.936-160.540444zM849.749333 810.666667H910.222222a113.777778 113.777778 0 0 0 113.777778-113.777778v-625.777778a113.777778 113.777778 0 0 0-113.777778-113.777778h-60.472889A113.834667 113.834667 0 0 0 739.555556-128H113.777778a113.777778 113.777778 0 0 0-113.777778 113.777778V782.222222a113.777778 113.777778 0 0 0 113.777778 113.777778h625.777778a113.834667 113.834667 0 0 0 110.193777-85.333333zM853.333333 725.333333v-682.666666h56.888889a28.444444 28.444444 0 0 1 28.444445 28.444444V696.888889a28.444444 28.444444 0 0 1-28.444445 28.444444h-56.888889zM113.777778 810.666667a28.444444 28.444444 0 0 1-28.444445-28.444445v-796.444444a28.444444 28.444444 0 0 1 28.444445-28.444445h625.777778a28.444444 28.444444 0 0 1 28.444444 28.444445V782.222222a28.444444 28.444444 0 0 1-28.444444 28.444445H113.777778z m184.888889-597.333334h256a42.666667 42.666667 0 1 0 0-85.333333h-256a42.666667 42.666667 0 1 0 0 85.333333z"  horiz-adv-x="1024" />

    


  </font>
</defs>
</svg>
